<?xml version="1.0" encoding="UTF-8"?>
<svg version="1.1" xmlns="http://www.w3.org/2000/svg" width="1080" height="1080">
<path d="M0 0 C356.4 0 712.8 0 1080 0 C1080 356.4 1080 712.8 1080 1080 C723.6 1080 367.2 1080 0 1080 C0 723.6 0 367.2 0 0 Z " fill="#000000" transform="translate(0,0)"/>
<path d="M0 0 C121.44 0 242.88 0 368 0 C368 161.37 368 322.74 368 489 C327.41 489 286.82 489 245 489 C245 364.59 245 240.18 245 112 C204.74 112 164.48 112 123 112 C123 236.41 123 360.82 123 489 C90.66 489 58.32 489 25 489 C25 364.59 25 240.18 25 112 C16.75 112 8.5 112 0 112 C0 75.04 0 38.08 0 0 Z " fill="#FE0000" transform="translate(352,321)"/>
</svg>
